# The Great Editor v0.0.1
mtllib floor_1.mtl
o floor_1
v 0.7151765847912998 -0.3086583750445534 0
v 0.7151765847912998 -0.3086583750445534 -0.1
v 30.23595502858459 -0.394784538780372 0
v 30.23595502858459 -0.394784538780372 -0.1
v 30.257486569518544 -38.270089537026834 0
v 30.257486569518544 -38.270089537026834 -0.1
v 32.49685173020241 -38.334684159828704 0
v 32.49685173020241 -38.334684159828704 -0.1
v 32.518383271136365 -44.96663649743395 0
v 32.518383271136365 -44.96663649743395 -0.1
v 1.0381666795111353 -45.13888882490559 0
v 1.0381666795111353 -45.13888882490559 -0.1
vt 0.7151765847912998 -0.3086583750445534 0
vt 30.23595502858459 -0.394784538780372 0
vt 30.257486569518544 -38.270089537026834 0
vt 32.49685173020241 -38.334684159828704 0
vt 32.518383271136365 -44.96663649743395 0
vt 1.0381666795111353 -45.13888882490559 0
vn 0 0 1
vn 0 0 -1
usemtl floor_1
s off
f 1/1/1 11/6/1 5/3/1
f 6/3/2 12/6/2 2/1/2
f 1/1/1 5/3/1 3/2/1
f 4/2/2 6/3/2 2/1/2
f 7/4/1 5/3/1 9/5/1
f 10/5/2 6/3/2 8/4/2
f 9/5/1 5/3/1 11/6/1
f 12/6/2 6/3/2 10/5/2
