# The Great Editor v0.0.1
mtllib floor_1.mtl
o floor_1
v 9.527961736839456 -22.184029837722864 0
v 9.527961736839456 -22.184029837722864 -0.1
v 30.284660740971646 -22.119540588591274 0
v 30.284660740971646 -22.119540588591274 -0.1
v 30.186248075442982 -35.77372912841416 0
v 30.186248075442982 -35.77372912841416 -0.1
v 29.510873279470292 -35.872601318345495 0
v 29.510873279470292 -35.872601318345495 -0.1
v 29.557247880604507 -37.998351306693955 0
v 29.557247880604507 -37.998351306693955 -0.1
v 9.525937804066224 -37.96405399933695 0
v 9.525937804066224 -37.96405399933695 -0.1
vt 9.527961736839456 -22.184029837722864 0
vt 30.284660740971646 -22.119540588591274 0
vt 30.186248075442982 -35.77372912841416 0
vt 29.510873279470292 -35.872601318345495 0
vt 29.557247880604507 -37.998351306693955 0
vt 9.525937804066224 -37.96405399933695 0
vn 0 0 1
vn 0 0 -1
usemtl floor_1
s off
f 1/1/1 11/6/1 7/4/1
f 8/4/2 12/6/2 2/1/2
f 1/1/1 7/4/1 3/2/1
f 4/2/2 8/4/2 2/1/2
f 3/2/1 7/4/1 5/3/1
f 6/3/2 8/4/2 4/2/2
f 9/5/1 7/4/1 11/6/1
f 12/6/2 8/4/2 10/5/2
