# The Great Editor v0.0.1
mtllib floor_1.mtl
o floor_1
v 0.036532805512797986 0.016216872621713757 0
v 0.036532805512797986 0.016216872621713757 -0.1
v 10.02379566837582 -0.07402672254195786 0
v 10.02379566837582 -0.07402672254195786 -0.1
v 9.99343254151808 -6.768137313155139 0
v 9.99343254151808 -6.768137313155139 -0.1
v 0.008863266116640896 -6.72284933360577 0
v 0.008863266116640896 -6.72284933360577 -0.1
v 5.580778725674867 -5.244041748902275 0
v 5.580778725674867 -5.244041748902275 -0.1
v 5.580778725674867 -1.1440417489022754 0
v 5.580778725674867 -1.1440417489022754 -0.1
v 9.680778725674866 -1.1440417489022754 0
v 9.680778725674866 -1.1440417489022754 -0.1
v 9.680778725674866 -5.244041748902275 0
v 9.680778725674866 -5.244041748902275 -0.1
vt 0.036532805512797986 0.016216872621713757 0
vt 10.02379566837582 -0.07402672254195786 0
vt 9.99343254151808 -6.768137313155139 0
vt 0.008863266116640896 -6.72284933360577 0
vt 5.580778725674867 -5.244041748902275 0
vt 5.580778725674867 -1.1440417489022754 0
vt 9.680778725674866 -1.1440417489022754 0
vt 9.680778725674866 -5.244041748902275 0
vn 0 0 1
vn 0 0 -1
usemtl floor_1
s off
f 1/1/1 7/4/1 9/5/1
f 10/5/2 8/4/2 2/1/2
f 1/1/1 9/5/1 11/6/1
f 12/6/2 10/5/2 2/1/2
f 1/1/1 11/6/1 3/2/1
f 4/2/2 12/6/2 2/1/2
f 3/2/1 11/6/1 13/7/1
f 14/7/2 12/6/2 4/2/2
f 3/2/1 13/7/1 15/8/1
f 16/8/2 14/7/2 4/2/2
f 3/2/1 15/8/1 5/3/1
f 6/3/2 16/8/2 4/2/2
f 5/3/1 15/8/1 9/5/1
f 10/5/2 16/8/2 6/3/2
f 5/3/1 9/5/1 7/4/1
f 8/4/2 10/5/2 6/3/2
